<svg width="126" height="42" viewBox="0 0 126 42" fill="none" xmlns="http://www.w3.org/2000/svg">
<path fill-rule="evenodd" clip-rule="evenodd" d="M28.039 8.90175C21.7905 2.65324 11.672 2.63304 5.39621 8.83752L5.39462 8.83593C5.38855 8.84201 5.38274 8.84822 5.37695 8.85442C5.37214 8.85957 5.36734 8.8647 5.36239 8.86975C5.35752 8.87452 5.35252 8.87912 5.34752 8.88371L5.34751 8.88372L5.3475 8.88373C5.3411 8.88962 5.33469 8.89551 5.32857 8.90175L5.33016 8.90357C-0.874316 15.1793 -0.854115 25.2981 5.39462 31.5464C10.1757 36.3277 17.22 37.4624 23.0768 34.954C23.4411 34.7983 23.7538 34.5813 24.0124 34.323C25.1293 33.206 25.2176 31.3074 24.0058 30.0955C23.1376 29.2273 21.8247 28.9415 20.6948 29.423C17.0371 30.9848 12.6378 30.2737 9.65253 27.2885C5.74417 23.3801 5.73577 17.0512 9.6203 13.1277C13.5439 9.24313 19.8727 9.25153 23.7811 13.1599C26.7663 16.1451 27.4774 20.5444 25.9156 24.2022C25.4342 25.3319 25.7199 26.645 26.5881 27.5134C27.8 28.725 29.6987 28.6367 30.8156 27.5197C31.0741 27.2612 31.2907 26.9484 31.4466 26.5841C33.955 20.7274 32.8203 13.6831 28.039 8.90175ZM28.0493 36.729C29.4775 38.1571 31.7933 38.1571 33.2215 36.729C34.6496 35.3006 34.6496 32.985 33.2215 31.5568C31.7933 30.1284 29.4775 30.1284 28.0493 31.5568C26.6209 32.985 26.6209 35.3006 28.0493 36.729ZM34.9071 12.9716C34.9071 11.346 35.8983 10.1568 37.5237 10.1568C39.0699 10.1568 40.2195 11.3857 40.2195 12.9716V23.0812C40.2195 25.4205 41.6865 26.7685 44.0255 26.7685C45.4925 26.7685 46.8008 26.4115 47.911 25.7378V12.8921C47.911 11.346 49.0209 10.1568 50.5673 10.1568C52.0343 10.1568 53.2234 11.346 53.2234 12.8921V27.7198C53.2234 28.5526 52.9063 29.1865 52.2719 29.5833C50.1708 31.0897 47.3558 31.8431 43.9066 31.8431C38.1976 31.8431 34.9071 28.711 34.9071 23.1607V12.9716ZM60.6943 13.2192V28.8422C60.6943 30.3429 59.5052 31.4971 58.0382 31.4971C56.611 31.4971 55.3819 30.2658 55.3819 28.8422V13.2192C55.3819 11.7185 56.4918 10.5641 58.0382 10.5641C59.5052 10.5641 60.6943 11.7185 60.6943 13.2192ZM77.2143 26.6097H69.4441L78.7609 16.0243C79.7519 14.9144 79.99 13.7645 79.5538 12.5354C79.0385 11.2271 78.0471 10.5929 76.5801 10.5929H65.7968C64.3299 10.5929 63.2195 11.6237 63.2195 13.0511C63.2195 14.5179 64.3299 15.4691 65.7968 15.4691H73.131L63.616 26.2929C63.0213 26.9663 62.7437 27.7199 62.7437 28.5527C62.7437 30.2968 64.092 31.5259 66.0347 31.5259H77.2143C78.6813 31.5259 79.8314 30.4952 79.8314 29.0679C79.8314 27.6007 78.6813 26.6097 77.2143 26.6097ZM87.1887 13.2192V28.8422C87.1887 30.3429 85.9995 31.4971 84.5326 31.4971C83.1053 31.4971 81.8762 30.2658 81.8762 28.8422V13.2192C81.8762 11.7185 82.9859 10.5641 84.5326 10.5641C85.9995 10.5641 87.1887 11.7185 87.1887 13.2192ZM103.56 26.6097H95.7896L105.106 16.0243C106.097 14.9144 106.336 13.7645 105.899 12.5354C105.384 11.2271 104.393 10.5929 102.926 10.5929H92.1423C90.6753 10.5929 89.5649 11.6237 89.5649 13.0511C89.5649 14.5179 90.6753 15.4691 92.1423 15.4691H99.4765L89.9615 26.2929C89.3668 26.9663 89.0892 27.7199 89.0892 28.5527C89.0892 30.2968 90.4374 31.5259 92.3802 31.5259H103.56C105.027 31.5259 106.177 30.4952 106.177 29.0679C106.177 27.6007 105.027 26.6097 103.56 26.6097ZM114.92 26.6097H122.69C124.157 26.6097 125.307 27.6007 125.307 29.0679C125.307 30.4952 124.157 31.5259 122.69 31.5259H111.51C109.568 31.5259 108.219 30.2968 108.219 28.5527C108.219 27.7199 108.497 26.9663 109.092 26.2929L118.607 15.4691H111.273C109.806 15.4691 108.695 14.5179 108.695 13.0511C108.695 11.6237 109.806 10.5929 111.273 10.5929H122.056C123.523 10.5929 124.514 11.2271 125.03 12.5354C125.466 13.7645 125.228 14.9144 124.237 16.0243L114.92 26.6097Z" fill="#59066B"/>
</svg>
